<?xml version="1.0" standalone="no"?>
<!DOCTYPE svg PUBLIC "-//W3C//DTD SVG 20010904//EN"
 "http://www.w3.org/TR/2001/REC-SVG-20010904/DTD/svg10.dtd">
<svg version="1.0" xmlns="http://www.w3.org/2000/svg"
 width="1488.000000pt" height="1488.000000pt" viewBox="0 0 1488.000000 1488.000000"
 preserveAspectRatio="xMidYMid meet">
<metadata>
Created by potrace 1.14, written by Peter Selinger 2001-2017
</metadata>
<g transform="translate(0.000000,1488.000000) scale(0.100000,-0.100000)"
fill="#000000" stroke="none">
<path d="M9940 8135 l0 -1895 440 0 440 0 0 1895 0 1895 -440 0 -440 0 0
-1895z"/>
<path d="M7640 9445 l0 -345 -172 -2 -173 -3 0 -360 0 -360 173 -3 172 -2 0
-593 c0 -342 5 -640 11 -706 20 -217 84 -396 184 -523 81 -102 227 -195 385
-247 144 -47 200 -53 548 -58 l332 -5 0 370 0 370 -207 5 c-229 5 -268 12
-318 62 -55 55 -55 60 -55 719 l0 606 285 0 285 0 0 365 0 365 -285 0 -285 0
0 345 0 345 -440 0 -440 0 0 -345z"/>
<path d="M1725 9129 c-255 -37 -510 -183 -658 -379 l-27 -35 0 193 0 192 -445
0 -445 0 2 -2112 3 -2113 440 0 440 0 3 874 2 874 28 -39 c85 -116 273 -256
423 -314 231 -89 554 -95 806 -15 419 132 739 525 843 1033 32 158 44 365 31
533 -20 246 -60 405 -156 605 -218 460 -620 718 -1110 713 -66 -1 -147 -5
-180 -10z m74 -774 c111 -27 187 -71 282 -165 68 -67 94 -101 122 -160 111
-231 97 -564 -31 -774 -69 -114 -189 -211 -318 -258 -73 -26 -252 -36 -337
-18 -157 32 -324 161 -400 307 -62 118 -80 204 -81 378 0 169 13 240 69 360
55 121 156 224 278 287 106 54 289 73 416 43z"/>
<path d="M5070 9134 c-175 -22 -386 -82 -514 -146 -172 -86 -353 -237 -466
-389 -315 -423 -369 -1138 -125 -1644 182 -377 512 -629 948 -726 69 -16 142
-22 297 -26 178 -5 221 -2 328 16 216 37 412 116 577 233 157 112 327 310 413
483 29 58 92 227 92 246 0 5 -189 9 -467 9 l-468 0 -24 -42 c-33 -58 -107
-135 -159 -165 -76 -45 -157 -64 -267 -64 -305 0 -487 167 -540 494 l-6 37
985 0 c930 0 986 1 995 18 17 31 24 280 12 402 -15 149 -34 241 -76 367 -110
330 -336 594 -642 747 -211 106 -386 146 -663 151 -107 2 -211 1 -230 -1z
m335 -719 c181 -47 307 -159 355 -314 11 -35 20 -83 20 -107 l0 -44 -540 0
c-388 0 -540 3 -540 11 0 31 35 139 62 193 62 123 195 226 334 260 80 19 236
20 309 1z"/>
<path d="M11492 9083 c3 -10 263 -630 578 -1378 315 -748 573 -1364 573 -1370
0 -5 -147 -334 -326 -730 l-325 -720 471 -3 c259 -1 474 1 478 5 7 9 1789
4198 1789 4208 0 3 -214 4 -476 3 l-476 -3 -322 -877 c-177 -483 -324 -880
-327 -883 -3 -3 -140 358 -304 803 -164 444 -311 842 -327 885 l-30 77 -490 0
c-462 0 -490 -1 -486 -17z"/>
</g>
</svg>
