<svg xmlns="http://www.w3.org/2000/svg" width="1396" height="538" fill="none" viewBox="0 0 1396 538"><g clip-path="url(#a)"><path fill="url(#b)" d="M1211.8 43.298c15.43 6.37 30 14.015 44.15 22.933 94.73 58.606 154.74 172.844 137.17 281.987-18 110.841-136.31 268.396-253.33 291.329-38.15 7.644-77.16-2.973-114.46-14.439-62.579-19.111-121.304-50.112-183.03-67.949-24.005-6.794-50.153-8.493-73.3.85-40.293 16.137-50.152 50.961-67.298 86.209-19.29 39.92-51.868 73.47-91.304 94.279-81.015 42.468-185.607 22.508-260.621-23.357-111.45-67.949-151.314-201.723-114.45-323.181 9.43-31.426 24.433-62.427 49.295-84.511 42.437-38.221 106.306-45.016 162.031-31.001 38.579 9.767 73.728 28.453 107.163 48.838 27.434 16.987 52.724 40.344 86.588 40.344 68.585.425 89.589-87.059 111.45-135.897 28.72-64.551 77.158-121.033 137.169-158.83C985.899 9.325 1106.35-1.292 1211.8 43.299Z"/><path fill="url(#c)" d="M1211.84 43.557c15.42 6.368 29.99 14.011 44.13 22.927 94.68 58.594 154.67 172.809 137.1 281.93-17.99 110.818-136.25 268.342-253.22 291.27-38.13 7.642-77.12-2.972-114.39-14.436-62.556-19.107-121.254-50.102-182.952-67.935-23.993-6.794-50.129-8.492-73.265.849-40.275 16.135-50.129 50.951-67.267 86.192-19.281 39.912-51.843 73.455-91.261 94.26-80.978 42.459-185.52 22.503-260.5-23.353-111.397-67.935-151.243-201.681-114.397-323.114 9.427-31.42 24.422-62.415 49.273-84.494 42.417-38.214 106.256-45.007 161.955-30.995 38.561 9.765 73.694 28.447 107.113 48.828 27.421 16.983 52.7 40.336 86.548 40.336 68.552.424 89.547-87.041 111.398-135.87 28.706-64.538 77.121-121.008 137.105-158.797 96.83-61.566 217.23-72.18 322.63-27.598Z"/><path fill="url(#d)" d="M202.32 915.588C8.569 770.773 121.734 451.839 308.198 354.163c69.87-36.522 151.315-50.537 229.758-40.344 70.728 9.342 159.031 33.124 231.473 5.945 54.868-20.809 80.158-72.195 108.878-118.91 79.729-129.952 280.763-154.158 380.643-31.001 36.87 45.44 51.87 108.717 33.86 164.35-42.43 129.102-184.74 73.894-265.33 143.117-32.151 27.604-40.724 82.812-59.585 119.759-19.289 37.796-42.865 73.894-68.155 108.293-53.153 72.62-117.88 138.87-192.466 190.256C558.531 998.4 372.496 1028.98 215.18 924.931c-4.287-2.973-8.573-5.946-12.86-9.343Z"/><path fill="url(#e)" d="M202.32 915.588C8.569 770.773 121.734 451.839 308.198 354.163c69.87-36.522 151.315-50.537 229.758-40.344 70.728 9.342 159.031 33.124 231.473 5.945 54.868-20.809 80.158-72.195 108.878-118.91 79.729-129.952 280.763-154.158 380.643-31.001 36.87 45.44 51.87 108.717 33.86 164.35-42.43 129.102-184.74 73.894-265.33 143.117-32.151 27.604-40.724 82.812-59.585 119.759-19.289 37.796-42.865 73.894-68.155 108.293-53.153 72.62-117.88 138.87-192.466 190.256C558.531 998.4 372.496 1028.98 215.18 924.931c-4.287-2.973-8.573-5.946-12.86-9.343Z"/></g><g clip-path="url(#f)"><path fill="url(#g)" d="M91.665 855.097c-176.31-133.024-73.332-425.988 96.347-515.711 63.581-33.549 137.693-46.422 209.075-37.06 64.361 8.583 144.715 30.428 210.636 5.462 49.929-19.115 72.943-66.317 99.077-109.228 72.552-119.37 255.493-141.606 346.38-28.477 33.54 41.741 47.2 99.865 30.81 150.968-38.61 118.59-168.115 67.877-241.447 131.464-29.255 25.356-37.056 76.069-54.219 110.008-17.553 34.718-39.007 67.877-62.021 99.475-48.368 66.707-107.268 127.562-175.139 174.764-135.353 94.404-304.642 122.491-447.797 26.917-3.9-2.731-7.8-5.461-11.702-8.582Z"/><path fill="url(#h)" d="M91.665 855.097c-176.31-133.024-73.332-425.988 96.347-515.711 63.581-33.549 137.693-46.422 209.075-37.06 64.361 8.583 144.715 30.428 210.636 5.462 49.929-19.115 72.943-66.317 99.077-109.228 72.552-119.37 255.493-141.606 346.38-28.477 33.54 41.741 47.2 99.865 30.81 150.968-38.61 118.59-168.115 67.877-241.447 131.464-29.255 25.356-37.056 76.069-54.219 110.008-17.553 34.718-39.007 67.877-62.021 99.475-48.368 66.707-107.268 127.562-175.139 174.764-135.353 94.404-304.642 122.491-447.797 26.917-3.9-2.731-7.8-5.461-11.702-8.582Z"/><path fill="url(#i)" d="M184.5 152c-20.158 0-36.5-16.342-36.5-36.5S164.342 79 184.5 79 221 95.342 221 115.5 204.658 152 184.5 152Z"/><path fill="url(#j)" d="M405.5 269c-17.397 0-31.5-14.103-31.5-31.5s14.103-31.5 31.5-31.5 31.5 14.103 31.5 31.5-14.103 31.5-31.5 31.5Z"/></g><defs><linearGradient id="b" x1="156.366" x2="1773.4" y1="776.404" y2="-115" gradientUnits="userSpaceOnUse"><stop stop-color="#FF9370"/><stop offset="1" stop-color="#FFDF00"/></linearGradient><linearGradient id="d" x1="1277.45" x2="249.503" y1="-450.926" y2="1208.7" gradientUnits="userSpaceOnUse"><stop stop-color="#FFDF00"/><stop offset="1" stop-color="#FF9370"/></linearGradient><linearGradient id="g" x1="1070.01" x2="121.837" y1="-400.149" y2="1116.36" gradientUnits="userSpaceOnUse"><stop stop-color="#FFDF00"/><stop offset="1" stop-color="#FF9370"/></linearGradient><linearGradient id="i" x1="99.232" x2="273.273" y1="175.573" y2="52.645" gradientUnits="userSpaceOnUse"><stop stop-color="#EC4C76"/><stop offset=".704" stop-color="#FEBB40"/><stop offset="1" stop-color="#fff"/></linearGradient><linearGradient id="j" x1="331.913" x2="482.113" y1="289.344" y2="183.255" gradientUnits="userSpaceOnUse"><stop stop-color="#EC4C76"/><stop offset=".518" stop-color="#FEBB40"/><stop offset="1" stop-color="#fff"/></linearGradient><radialGradient id="c" cx="0" cy="0" r="1" gradientTransform="rotate(79.626 466.775 438.987) scale(1313.6 1235.52)" gradientUnits="userSpaceOnUse"><stop stop-color="#FEBB40"/><stop offset=".558" stop-color="#EC4C76"/><stop offset=".973" stop-color="#D60B52"/></radialGradient><radialGradient id="e" cx="0" cy="0" r="1" gradientTransform="rotate(-122.724 530.734 -185.272) scale(1401.84 2365.81)" gradientUnits="userSpaceOnUse"><stop stop-color="#FEBB40"/><stop offset=".558" stop-color="#EC4C76"/><stop offset=".973" stop-color="#D60B52"/></radialGradient><radialGradient id="h" cx="0" cy="0" r="1" gradientTransform="rotate(-122.48 441.178 -136.73) scale(1284.19 2158.72)" gradientUnits="userSpaceOnUse"><stop stop-color="#FEBB40"/><stop offset=".558" stop-color="#EC4C76"/><stop offset=".973" stop-color="#D60B52"/></radialGradient><clipPath id="a"><path fill="#fff" d="M885 16h511v393H885z"/></clipPath><clipPath id="f"><path fill="#fff" d="M1178 0H0v538h1178z"/></clipPath></defs></svg>