<svg xmlns="http://www.w3.org/2000/svg" width="1409" height="538" fill="none" viewBox="0 0 1409 538"><g clip-path="url(#a)"><path fill="url(#b)" d="M1224.8 44.298c15.43 6.37 30.01 14.015 44.15 22.933 94.73 58.606 154.74 172.844 137.17 281.987-18 110.841-136.31 268.396-253.33 291.329-38.15 7.644-77.16-2.973-114.45-14.439-62.588-19.111-121.314-50.112-183.04-67.949-24.004-6.794-50.152-8.493-73.3.85-40.293 16.137-50.152 50.961-67.298 86.209-19.29 39.92-51.867 73.47-91.303 94.279-81.016 42.468-185.607 22.508-260.622-23.357-111.449-67.949-151.314-201.723-114.45-323.181 9.43-31.426 24.433-62.427 49.295-84.511 42.437-38.221 106.306-45.016 162.031-31.001 38.579 9.767 73.728 28.453 107.163 48.838 27.434 16.987 52.725 40.344 86.588 40.344 68.585.425 89.589-87.059 111.45-135.897 28.72-64.551 77.158-121.033 137.169-158.83C998.899 10.325 1119.35-.292 1224.8 44.299Z"/><path fill="url(#c)" d="M1224.84 44.557c15.42 6.368 29.99 14.011 44.13 22.927 94.68 58.594 154.67 172.809 137.1 281.93-17.99 110.818-136.25 268.342-253.21 291.27-38.14 7.642-77.13-2.972-114.4-14.436-62.556-19.107-121.254-50.102-182.951-67.935-23.994-6.794-50.129-8.492-73.266.849-40.274 16.135-50.129 50.951-67.267 86.192-19.28 39.912-51.843 73.455-91.26 94.26-80.978 42.459-185.521 22.503-260.5-23.353-111.398-67.935-151.244-201.681-114.397-323.114 9.426-31.42 24.422-62.415 49.272-84.494 42.417-38.214 106.256-45.007 161.955-30.995 38.561 9.765 73.694 28.447 107.114 48.828 27.421 16.983 52.699 40.336 86.547 40.336 68.553.424 89.547-87.041 111.398-135.87 28.707-64.538 77.122-121.008 137.105-158.797 96.831-61.566 217.23-72.18 322.63-27.598Z"/><path fill="url(#d)" d="M215.32 916.588C21.569 771.773 134.733 452.839 321.198 355.163c69.87-36.522 151.314-50.537 229.758-40.344 70.728 9.342 159.03 33.124 231.473 5.945 54.867-20.809 80.158-72.195 108.878-118.91 79.729-129.952 280.763-154.158 380.643-31.001 36.87 45.44 51.87 108.717 33.86 164.35-42.43 129.102-184.75 73.894-265.33 143.117-32.15 27.604-40.724 82.812-59.585 119.759-19.289 37.796-42.865 73.894-68.156 108.293-53.153 72.62-117.879 138.87-192.465 190.256C571.531 999.4 385.496 1029.98 228.18 925.931c-4.287-2.973-8.573-5.946-12.86-9.343Z"/><path fill="url(#e)" d="M215.32 916.588C21.569 771.773 134.733 452.839 321.198 355.163c69.87-36.522 151.314-50.537 229.758-40.344 70.728 9.342 159.03 33.124 231.473 5.945 54.867-20.809 80.158-72.195 108.878-118.91 79.729-129.952 280.763-154.158 380.643-31.001 36.87 45.44 51.87 108.717 33.86 164.35-42.43 129.102-184.75 73.894-265.33 143.117-32.15 27.604-40.724 82.812-59.585 119.759-19.289 37.796-42.865 73.894-68.156 108.293-53.153 72.62-117.879 138.87-192.465 190.256C571.531 999.4 385.496 1029.98 228.18 925.931c-4.287-2.973-8.573-5.946-12.86-9.343Z"/></g><g clip-path="url(#f)"><path fill="url(#g)" d="M1010.27 53.834c14.04 5.851 27.31 12.873 40.18 21.065 86.2 53.833 140.81 158.77 124.82 259.026-16.38 101.815-124.04 246.542-230.53 267.607-34.716 7.022-70.212-2.73-104.147-13.263-56.95-17.554-110.389-46.032-166.559-62.416-21.843-6.241-45.637-7.802-66.701.78-36.666 14.824-45.638 46.812-61.24 79.191-17.553 36.669-47.198 67.487-83.085 86.602-73.722 39.009-168.898 20.675-237.16-21.456-101.417-62.416-137.693-185.297-104.147-296.865 8.581-28.868 22.233-57.345 44.857-77.63 38.617-35.109 96.737-41.35 147.445-28.477 35.106 8.972 67.092 26.136 97.517 44.861 24.964 15.604 47.978 37.06 78.793 37.06 62.411.39 81.524-79.971 101.417-124.832 26.135-59.295 70.212-111.178 124.822-145.897 88.155-56.564 197.763-66.317 293.718-25.356Z"/><path fill="url(#h)" d="M1010.3 54.07c14.04 5.85 27.3 12.871 40.16 21.062 86.17 53.822 140.75 158.738 124.76 258.973-16.37 101.795-123.98 246.492-230.417 267.553-34.699 7.02-70.179-2.73-104.099-13.261-56.923-17.551-110.337-46.022-166.48-62.403-21.834-6.24-45.617-7.8-66.671.78-36.649 14.821-45.616 46.803-61.211 79.174-17.545 36.662-47.176 67.474-83.046 86.585-73.688 39.002-168.82 20.671-237.049-21.451-101.37-62.404-137.63-185.26-104.099-296.805 8.577-28.862 22.223-57.333 44.836-77.614 38.599-35.102 96.692-41.342 147.377-28.472 35.089 8.971 67.06 26.132 97.471 44.853 24.952 15.6 47.955 37.051 78.756 37.051 62.382.39 81.486-79.954 101.37-124.806 26.122-59.283 70.179-111.155 124.763-145.867C804.835 22.869 914.392 13.119 1010.3 54.07Z"/><path fill="url(#i)" d="M91.665 855.097c-176.31-133.024-73.332-425.988 96.347-515.711 63.581-33.549 137.693-46.422 209.075-37.06 64.361 8.583 144.715 30.428 210.636 5.462 49.929-19.115 72.943-66.317 99.077-109.228 72.552-119.37 255.493-141.606 346.38-28.477 33.54 41.741 47.2 99.865 30.81 150.968-38.61 118.59-168.115 67.877-241.447 131.464-29.255 25.356-37.056 76.069-54.219 110.008-17.553 34.718-39.007 67.877-62.021 99.475-48.368 66.707-107.268 127.562-175.139 174.764-135.353 94.404-304.642 122.491-447.797 26.917-3.9-2.731-7.8-5.461-11.702-8.582Z"/><path fill="url(#j)" d="M91.665 855.097c-176.31-133.024-73.332-425.988 96.347-515.711 63.581-33.549 137.693-46.422 209.075-37.06 64.361 8.583 144.715 30.428 210.636 5.462 49.929-19.115 72.943-66.317 99.077-109.228 72.552-119.37 255.493-141.606 346.38-28.477 33.54 41.741 47.2 99.865 30.81 150.968-38.61 118.59-168.115 67.877-241.447 131.464-29.255 25.356-37.056 76.069-54.219 110.008-17.553 34.718-39.007 67.877-62.021 99.475-48.368 66.707-107.268 127.562-175.139 174.764-135.353 94.404-304.642 122.491-447.797 26.917-3.9-2.731-7.8-5.461-11.702-8.582Z"/><path fill="url(#k)" d="M557.5 239c-17.397 0-31.5-14.103-31.5-31.5s14.103-31.5 31.5-31.5 31.5 14.103 31.5 31.5-14.103 31.5-31.5 31.5Z"/><path fill="url(#l)" d="M423.5 146c-20.158 0-36.5-16.342-36.5-36.5S403.342 73 423.5 73 460 89.342 460 109.5 443.658 146 423.5 146Z"/></g><defs><linearGradient id="b" x1="169.366" x2="1786.4" y1="777.404" y2="-114" gradientUnits="userSpaceOnUse"><stop stop-color="#FF9370"/><stop offset="1" stop-color="#FFDF00"/></linearGradient><linearGradient id="d" x1="1290.45" x2="262.503" y1="-449.926" y2="1209.7" gradientUnits="userSpaceOnUse"><stop stop-color="#FFDF00"/><stop offset="1" stop-color="#FF9370"/></linearGradient><linearGradient id="g" x1="49.848" x2="1527.73" y1="727.246" y2="-79.828" gradientUnits="userSpaceOnUse"><stop stop-color="#FF9370"/><stop offset="1" stop-color="#FFDF00"/></linearGradient><linearGradient id="i" x1="1070.01" x2="121.837" y1="-400.149" y2="1116.36" gradientUnits="userSpaceOnUse"><stop stop-color="#FFDF00"/><stop offset="1" stop-color="#FF9370"/></linearGradient><linearGradient id="k" x1="483.913" x2="634.113" y1="259.344" y2="153.255" gradientUnits="userSpaceOnUse"><stop stop-color="#EC4C76"/><stop offset=".518" stop-color="#FEBB40"/><stop offset="1" stop-color="#fff"/></linearGradient><linearGradient id="l" x1="338.232" x2="512.273" y1="169.573" y2="46.645" gradientUnits="userSpaceOnUse"><stop stop-color="#EC4C76"/><stop offset=".704" stop-color="#FEBB40"/><stop offset="1" stop-color="#fff"/></linearGradient><radialGradient id="c" cx="0" cy="0" r="1" gradientTransform="rotate(79.626 472.676 447.286) scale(1313.6 1235.52)" gradientUnits="userSpaceOnUse"><stop stop-color="#FEBB40"/><stop offset=".558" stop-color="#EC4C76"/><stop offset=".973" stop-color="#D60B52"/></radialGradient><radialGradient id="e" cx="0" cy="0" r="1" gradientTransform="rotate(-122.724 537.507 -188.322) scale(1401.84 2365.81)" gradientUnits="userSpaceOnUse"><stop stop-color="#FEBB40"/><stop offset=".558" stop-color="#EC4C76"/><stop offset=".973" stop-color="#D60B52"/></radialGradient><radialGradient id="h" cx="0" cy="0" r="1" gradientTransform="matrix(215.25674 1186.91869 -1106.58905 200.68834 648.764 -77.07)" gradientUnits="userSpaceOnUse"><stop stop-color="#FEBB40"/><stop offset=".558" stop-color="#EC4C76"/><stop offset=".973" stop-color="#D60B52"/></radialGradient><radialGradient id="j" cx="0" cy="0" r="1" gradientTransform="rotate(-122.48 441.178 -136.73) scale(1284.19 2158.72)" gradientUnits="userSpaceOnUse"><stop stop-color="#FEBB40"/><stop offset=".558" stop-color="#EC4C76"/><stop offset=".973" stop-color="#D60B52"/></radialGradient><clipPath id="a"><path fill="#fff" d="M898 17h511v393H898z"/></clipPath><clipPath id="f"><path fill="#fff" d="M1178 0H0v538h1178z"/></clipPath></defs></svg>